#!OML:ASF G:\JayActor3\Patient Classification 1\Patient 1\Session 6\male.ASF
:FULLY-SPECIFIED
:DEGREES
508
root 19.1202 15.8856 -7.21734 -2.81655 -61.8098 0.907161
lowerback -0.331217 -3.20336 -1.45056
upperback 3.77347 -4.27063 -0.220707
thorax 4.16083 -2.18752 0.409077
lowerneck -10.7635 3.08944 5.25342
upperneck 23.1598 4.0639 -4.74731
head 9.24965 1.7314 -2.08342
rclavicle -3.07184e-014 3.8763e-015
rhumerus -38.6491 -7.23983 -84.1061
rradius 24.3478
rwrist 7.26496
rhand -16.3374 -7.27795
rfingers 7.12502
rthumb 9.87464 -37.0264
lclavicle -3.07184e-014 3.8763e-015
lhumerus -17.8298 -3.83651 85.8566
lradius 36.3931
lwrist 20.4378
lhand -19.3733 9.84466
lfingers 7.12502
lthumb 6.94484 39.7107
rfemur -31.7268 6.88709 21.478
rtibia 26.6271
rfoot -12.9762 -14.1644
rtoes -3.58101
lfemur 28.0984 11.8672 -21.6786
ltibia -4.77083e-014
lfoot -9.05544 -3.99955
ltoes -15.0626
509
root 18.9641 15.8999 -7.13345 -2.97411 -61.5823 1.00454
lowerback -0.425406 -3.23132 -1.32889
upperback 3.74733 -4.31155 -0.1481
thorax 4.18424 -2.20455 0.409581
lowerneck -10.7399 3.07478 5.2502
upperneck 23.3024 4.07099 -4.85448
head 9.29731 1.72101 -2.12108
rclavicle 1.79279e-014 -1.49089e-016
rhumerus -38.6657 -7.29035 -83.9381
rradius 24.2949
rwrist 7.33072
rhand -16.3747 -7.2741
rfingers 7.12502
rthumb 9.83871 -37.0242
lclavicle 1.79279e-014 -1.49089e-016
lhumerus -18.2479 -3.39634 86.1741
lradius 35.7323
lwrist 20.0087
lhand -19.1584 9.67461
lfingers 7.12502
lthumb 7.15224 39.5338
rfemur -31.4844 6.90511 21.4164
rtibia 27.4093
rfoot -12.5876 -14.6107
rtoes -2.67451
lfemur 28.7477 11.7483 -21.46
ltibia -1.59028e-014
lfoot -7.91381 -4.32343
ltoes -15.8153
510
root 18.8071 15.9175 -7.04775 -3.1457 -61.373 1.07472
lowerback -0.498571 -3.25761 -1.18735
upperback 3.73792 -4.3519 -0.0705839
thorax 4.21198 -2.22102 0.404755
lowerneck -10.7041 3.065 5.24845
upperneck 23.4318 4.08637 -4.96731
head 9.33878 1.71422 -2.1601
rclavicle 1.25607e-014 -2.04375e-015
rhumerus -38.6457 -7.34708 -83.7525
rradius 24.2169
rwrist 7.41223
rhand -16.412 -7.26145
rfingers 7.12502
rthumb 9.8027 -37.0133
lclavicle 1.25607e-014 -2.04375e-015
lhumerus -18.6882 -2.88278 86.4787
lradius 35.0392
lwrist 19.5485
lhand -18.983 9.54582
lfingers 7.12502
lthumb 7.32155 39.3991
rfemur -31.2165 6.87259 21.3741
rtibia 28.1968
rfoot -12.2131 -14.839
rtoes -1.87534
lfemur 29.424 11.6445 -21.2195
ltibia -6.36111e-015
lfoot -6.6224 -4.58011
ltoes -16.5152
511
root 18.6499 15.9374 -6.96139 -3.32082 -61.177 1.11862
lowerback -0.54994 -3.28192 -1.03789
upperback 3.74069 -4.39102 0.0168835
thorax 4.24017 -2.237 0.406663
lowerneck -10.6638 3.05646 5.23884
upperneck 23.5504 4.10583 -5.0822
head 9.37582 1.70855 -2.19806
rclavicle -2.72925e-014 -2.08724e-015
rhumerus -38.584 -7.4071 -83.5448
rradius 24.113
rwrist 7.51036
rhand -16.4358 -7.2518
rfingers 7.12502
rthumb 9.77973 -37.0047
lclavicle -2.72925e-014 -2.08724e-015
lhumerus -19.1427 -2.28358 86.7706
lradius 34.3052
lwrist 19.0565
lhand -18.7831 9.40968
lfingers 7.12502
lthumb 7.51453 39.2562
rfemur -30.9157 6.79169 21.3545
rtibia 28.9692
rfoot -11.8345 -14.8494
rtoes -1.20005
lfemur 30.1048 11.5528 -20.9658
ltibia -3.18055e-014
lfoot -5.15774 -4.73372
ltoes -17.1759
512
root 18.4931 15.9586 -6.87519 -3.49798 -61.005 1.15053
lowerback -0.592955 -3.30594 -0.899774
upperback 3.75257 -4.43043 0.114501
thorax 4.27481 -2.25386 0.425362
lowerneck -10.617 3.05384 5.22624
upperneck 23.6577 4.13474 -5.19855
head 9.40826 1.707 -2.23495
rclavicle 2.83579e-014 -6.36111e-015
rhumerus -38.4796 -7.46001 -83.3233
rradius 23.9914
rwrist 7.62532
rhand -16.4284 -7.24968
rfingers 7.12502
rthumb 9.78685 -37.0023
lclavicle 2.83579e-014 -6.36111e-015
lhumerus -19.6161 -1.6015 87.0368
lradius 33.5459
lwrist 18.5637
lhand -18.5995 9.32005
lfingers 7.12502
lthumb 7.69177 39.1602
rfemur -30.5783 6.668 21.365
rtibia 29.7131
rfoot -11.4199 -14.7061
rtoes -0.572437
lfemur 30.7674 11.4863 -20.7132
ltibia -3.18055e-015
lfoot -3.50459 -4.73997
ltoes -17.7766
513
root 18.337 15.981 -6.79029 -3.68753 -60.8523 1.207
lowerback -0.641584 -3.32548 -0.798335
upperback 3.76798 -4.46338 0.218907
thorax 4.31962 -2.26894 0.471027
lowerneck -10.5727 3.05201 5.2052
upperneck 23.7554 4.1654 -5.31041
head 9.43771 1.70607 -2.26858
rclavicle -5.38334e-014 -1.2921e-015
rhumerus -38.3362 -7.51221 -83.0889
rradius 23.866
rwrist 7.74781
rhand -16.3939 -7.24639
rfingers 7.12502
rthumb 9.8201 -36.9974
lclavicle -5.38334e-014 -1.2921e-015
lhumerus -20.0977 -0.852639 87.2763
lradius 32.7557
lwrist 18.0697
lhand -18.4058 9.22728
lfingers 7.12502
lthumb 7.87865 39.0605
rfemur -30.2169 6.51483 21.392
rtibia 30.4208
rfoot -10.9486 -14.5177
rtoes 0.0675979
lfemur 31.3788 11.4439 -20.4887
ltibia -4.45278e-014
lfoot -1.64001 -4.56334
ltoes -18.2283
514
root 18.1816 16.0046 -6.70774 -3.89971 -60.7124 1.32226
lowerback -0.712223 -3.34409 -0.760948
upperback 3.78152 -4.49328 0.323813
thorax 4.38005 -2.28467 0.551326
lowerneck -10.5319 3.05346 5.18622
upperneck 23.8464 4.19908 -5.41756
head 9.46569 1.70727 -2.30051
rclavicle 2.37175e-014 2.98177e-015
rhumerus -38.1581 -7.56222 -82.8535
rradius 23.7534
rwrist 7.87136
rhand -16.324 -7.25603
rfingers 7.12502
rthumb 9.88761 -37.0038
lclavicle 2.37175e-014 2.98177e-015
lhumerus -20.5911 -0.0426725 87.4755
lradius 31.9522
lwrist 17.5797
lhand -18.2138 9.14448
lfingers 7.12502
lthumb 8.06395 38.9706
rfemur -29.8488 6.36349 21.414
rtibia 31.0868
rfoot -10.4687 -14.3561
rtoes 0.785034
lfemur 31.9105 11.4217 -20.3147
ltibia -6.99722e-014
lfoot 0.459923 -4.16843
ltoes -18.3798
515
root 18.0265 16.0297 -6.62823 -4.13842 -60.5741 1.51698
lowerback -0.818886 -3.35927 -0.800951
upperback 3.79133 -4.51585 0.423307
thorax 4.46267 -2.29929 0.666933
lowerneck -10.5023 3.05186 5.17524
upperneck 23.932 4.22545 -5.51959
head 9.49362 1.70633 -2.33273
rclavicle -1.54804e-014 -2.18663e-015
rhumerus -37.953 -7.61429 -82.6276
rradius 23.6712
rwrist 7.97403
rhand -16.2294 -7.27177
rfingers 7.12502
rthumb 9.97885 -37.0152
lclavicle -1.54804e-014 -2.18663e-015
lhumerus -21.0972 0.795066 87.629
lradius 31.1522
lwrist 17.0963
lhand -18.0467 9.10322
lfingers 7.12502
lthumb 8.22528 38.9231
rfemur -29.4886 6.22488 21.4163
rtibia 31.7059
rfoot -10.0403 -14.2442
rtoes 1.59335
lfemur 32.3414 11.411 -20.2055
ltibia 1.59028e-014
lfoot 2.80703 -3.51849
ltoes -18.2028
516
root 17.8718 16.0567 -6.55234 -4.41024 -60.4124 1.80716
lowerback -0.959809 -3.37675 -0.927885
upperback 3.79048 -4.53761 0.509681
thorax 4.55965 -2.3162 0.815296
lowerneck -10.4823 3.04543 5.17924
upperneck 24.0176 4.24008 -5.61416
head 9.52296 1.702 -2.36623
rclavicle -1.56791e-014 1.98785e-016
rhumerus -37.7362 -7.66927 -82.4239
rradius 23.6319
rwrist 8.03892
rhand -16.1364 -7.28751
rfingers 7.12502
rthumb 10.0685 -37.0266
lclavicle -1.56791e-014 1.98785e-016
lhumerus -21.614 1.65569 87.7277
lradius 30.3581
lwrist 16.5971
lhand -17.8908 9.09809
lfingers 7.12502
lthumb 8.37577 38.912
rfemur -29.1425 6.10319 21.3756
rtibia 32.2694
rfoot -9.72964 -14.1859
rtoes 2.5085
lfemur 28.494 11.5362 -20.1134
ltibia 7.69483
lfoot 2.08718 -3.80873
ltoes -17.7051
